<svg xmlns="http://www.w3.org/2000/svg" width="22" height="22" viewBox="0 0 22 22">
  <g id="footer-icon-instagram" transform="translate(-1296 -8116)">
    <path id="パス_1" data-name="パス 1" d="M455.108,43.28c2.942,0,3.291.011,4.453.064a6.061,6.061,0,0,1,2.045.379,3.644,3.644,0,0,1,2.092,2.091,6.128,6.128,0,0,1,.379,2.046c.052,1.162.063,1.51.063,4.452s-.011,3.291-.063,4.452a6.145,6.145,0,0,1-.379,2.047,3.654,3.654,0,0,1-2.092,2.091,6.134,6.134,0,0,1-2.045.378c-1.162.053-1.51.064-4.453.064s-3.29-.011-4.451-.064a6.145,6.145,0,0,1-2.046-.378,3.657,3.657,0,0,1-2.091-2.091,6.115,6.115,0,0,1-.379-2.047c-.053-1.161-.064-1.51-.064-4.452s.011-3.29.064-4.452a6.1,6.1,0,0,1,.379-2.046,3.647,3.647,0,0,1,2.091-2.091,6.071,6.071,0,0,1,2.046-.379c1.162-.053,1.51-.064,4.451-.064m0-1.968c-2.987,0-3.361.012-4.534.066a8.079,8.079,0,0,0-2.671.511,5.637,5.637,0,0,0-3.218,3.218,8.078,8.078,0,0,0-.511,2.671c-.053,1.173-.066,1.548-.066,4.535s.012,3.362.066,4.536a8.076,8.076,0,0,0,.511,2.67,5.627,5.627,0,0,0,3.218,3.218,8.079,8.079,0,0,0,2.671.511c1.173.053,1.547.066,4.534.066s3.363-.012,4.536-.066a8.078,8.078,0,0,0,2.67-.511,5.618,5.618,0,0,0,3.218-3.218,8.078,8.078,0,0,0,.511-2.67c.055-1.174.067-1.549.067-4.536s-.012-3.362-.067-4.535a8.08,8.08,0,0,0-.511-2.671,5.627,5.627,0,0,0-3.218-3.218,8.078,8.078,0,0,0-2.67-.511c-1.173-.053-1.547-.066-4.536-.066Z" transform="translate(851.891 8074.688)" fill="#111"/>
    <path id="パス_2" data-name="パス 2" d="M453.768,45.631a5.341,5.341,0,1,0,5.341,5.34A5.339,5.339,0,0,0,453.768,45.631Zm0,8.819a3.478,3.478,0,1,1,3.479-3.478A3.478,3.478,0,0,1,453.768,54.45Z" transform="translate(853.232 8076.028)" fill="#111"/>
    <path id="パス_3" data-name="パス 3" d="M459.429,45.785a1.392,1.392,0,1,1-1.392-1.392A1.392,1.392,0,0,1,459.429,45.785Z" transform="translate(854.779 8075.397)" fill="#111"/>
  </g>
</svg>
