<svg xmlns="http://www.w3.org/2000/svg" width="130" height="47.191" viewBox="0 0 130 47.191">
  <g id="header-logo" transform="translate(-120 -90)">
    <g id="グループ_19" data-name="グループ 19" transform="translate(120 90)">
      <path id="パス_5" data-name="パス 5" d="M566.251,83.585V42.775l2.12.957V83.585Z" transform="translate(-507.428 -39.975)" fill="#fff"/>
      <path id="パス_6" data-name="パス 6" d="M621.209,74V69.386l2.12,1.026V74Zm0,32.212v-27.3l2.12,1.027v26.278Zm0-31.361V72.3l2.12-1.027v4.615Z" transform="translate(-550.767 -62.604)" fill="#fff"/>
      <path id="パス_7" data-name="パス 7" d="M696.219,123.716c-.627-8.263-6.762-13.773-14.085-13.773a14.119,14.119,0,1,0,9.954,24.1l-1.5-1.5a12.316,12.316,0,0,1-8.451,3.506,12.094,12.094,0,0,1-12.018-10.892h26.166A11.1,11.1,0,0,0,696.219,123.716Zm-26.1-.688a12.036,12.036,0,0,1,23.975,0Z" transform="translate(-588.448 -94.241)" fill="#fff"/>
      <path id="パス_8" data-name="パス 8" d="M835.166,112.686c-.1,0-.188.005-.282.007s-.187-.007-.282-.007c-4.507,0-8.076,3.318-8.076,8.764v18.594h2.128V121.449a6.673,6.673,0,0,1,2.134-5.289,6.945,6.945,0,0,1,8.191,0,6.674,6.674,0,0,1,2.134,5.289v18.594h2.128V121.449C843.241,116,839.673,112.686,835.166,112.686Z" transform="translate(-713.241 -96.38)" fill="#fff"/>
      <path id="パス_9" data-name="パス 9" d="M335.342,52.98a4.166,4.166,0,0,1-3.621-3.465,9.046,9.046,0,0,0-4.557-6.46,11.71,11.71,0,0,0-11.16,0,9.029,9.029,0,0,0-4.554,6.456,4.166,4.166,0,0,1-3.623,3.467,9.457,9.457,0,0,0-6.744,4.363,10.365,10.365,0,0,0,0,10.686,9.451,9.451,0,0,0,6.742,4.359,4.163,4.163,0,0,1,3.622,3.467A9.029,9.029,0,0,0,316,82.314a11.685,11.685,0,0,0,11.16,0,9.035,9.035,0,0,0,4.556-6.457,4.166,4.166,0,0,1,3.618-3.467,9.458,9.458,0,0,0,6.748-4.362,10.365,10.365,0,0,0,0-10.685A9.462,9.462,0,0,0,335.342,52.98Zm6.448,14.875a9.115,9.115,0,0,1-6.5,4.206,4.5,4.5,0,0,0-3.908,3.745,8.71,8.71,0,0,1-4.392,6.223,11.327,11.327,0,0,1-10.8,0,8.7,8.7,0,0,1-4.393-6.223,4.5,4.5,0,0,0-3.913-3.745,9.111,9.111,0,0,1-6.5-4.2,10.033,10.033,0,0,1,0-10.344,9.114,9.114,0,0,1,6.5-4.206,4.5,4.5,0,0,0,3.914-3.745,8.7,8.7,0,0,1,4.39-6.222,11.352,11.352,0,0,1,10.8,0,8.72,8.72,0,0,1,4.394,6.226,4.5,4.5,0,0,0,3.911,3.743,9.121,9.121,0,0,1,6.5,4.205A10.033,10.033,0,0,1,341.79,67.856Z" transform="translate(-297.054 -39.09)" fill="#fff"/>
      <path id="パス_10" data-name="パス 10" d="M312.555,77.235a13.8,13.8,0,0,1-6.887-1.79,11.468,11.468,0,0,1-5.751-8.207,1.73,1.73,0,0,0-1.5-1.443,11.943,11.943,0,0,1-8.531-5.53,12.73,12.73,0,0,1,0-13.251,11.949,11.949,0,0,1,8.532-5.532,1.729,1.729,0,0,0,1.5-1.443,11.466,11.466,0,0,1,5.751-8.205,14.156,14.156,0,0,1,13.776,0A11.476,11.476,0,0,1,325.2,40.04a1.731,1.731,0,0,0,1.5,1.442,11.955,11.955,0,0,1,8.531,5.531h0a12.728,12.728,0,0,1,0,13.249,11.945,11.945,0,0,1-8.532,5.532,1.733,1.733,0,0,0-1.5,1.445,11.475,11.475,0,0,1-5.751,8.205A13.813,13.813,0,0,1,312.555,77.235Zm0-45.571a12.117,12.117,0,0,0-6.029,1.542,9.89,9.89,0,0,0-4.964,7.075,3.338,3.338,0,0,1-2.9,2.784,10.308,10.308,0,0,0-7.355,4.776,11.291,11.291,0,0,0,0,11.6,10.306,10.306,0,0,0,7.355,4.774,3.336,3.336,0,0,1,2.9,2.786,9.89,9.89,0,0,0,4.966,7.075,12.535,12.535,0,0,0,12.055,0A9.9,9.9,0,0,0,323.549,67a3.339,3.339,0,0,1,2.894-2.786,10.306,10.306,0,0,0,7.357-4.775,11.29,11.29,0,0,0,0-11.595h0a10.315,10.315,0,0,0-7.356-4.776,3.338,3.338,0,0,1-2.895-2.784,9.906,9.906,0,0,0-4.966-7.077A12.113,12.113,0,0,0,312.557,31.664Z" transform="translate(-288.026 -30.044)" fill="#fff"/>
      <g id="グループ_16" data-name="グループ 16" transform="translate(17.383 5.903)">
        <path id="パス_11" data-name="パス 11" d="M374.209,73.752a.525.525,0,0,1-.525-.525c0-1.968-.644-3.01-2.088-4.6a7.1,7.1,0,0,0-1.917-1.506,4.717,4.717,0,0,1-2.561-3.424,5.1,5.1,0,0,1,1.488-4.312,8.741,8.741,0,0,1,1.068-.948,7.4,7.4,0,0,1,9.072,0,8.734,8.734,0,0,1,1.068.948A5.1,5.1,0,0,1,381.3,63.7a4.715,4.715,0,0,1-2.561,3.424,7.115,7.115,0,0,0-1.917,1.506c-1.444,1.591-2.088,2.633-2.088,4.6A.525.525,0,0,1,374.209,73.752Zm0-15.813a6.482,6.482,0,0,0-3.9,1.336,7.725,7.725,0,0,0-.94.834,4.065,4.065,0,0,0-1.21,3.42,3.689,3.689,0,0,0,2.019,2.664,8.16,8.16,0,0,1,2.2,1.727,9.96,9.96,0,0,1,1.836,2.59,9.95,9.95,0,0,1,1.835-2.59,8.172,8.172,0,0,1,2.2-1.727,3.69,3.69,0,0,0,2.019-2.663,4.066,4.066,0,0,0-1.209-3.42,7.7,7.7,0,0,0-.94-.834A6.482,6.482,0,0,0,374.209,57.939Z" transform="translate(-367.061 -56.884)" fill="#fff"/>
        <path id="パス_12" data-name="パス 12" d="M374.209,166.451a7.527,7.527,0,0,1-4.536-1.552,8.756,8.756,0,0,1-1.068-.948,5.1,5.1,0,0,1-1.488-4.312,4.717,4.717,0,0,1,2.561-3.424,7.108,7.108,0,0,0,1.917-1.506c1.444-1.591,2.088-2.634,2.088-4.6a.525.525,0,1,1,1.05,0c0,1.968.644,3.01,2.088,4.6a7.114,7.114,0,0,0,1.917,1.506,4.715,4.715,0,0,1,2.561,3.424,5.1,5.1,0,0,1-1.487,4.312,8.752,8.752,0,0,1-1.068.948A7.531,7.531,0,0,1,374.209,166.451Zm0-13.627a9.959,9.959,0,0,1-1.836,2.59,8.156,8.156,0,0,1-2.2,1.727,3.689,3.689,0,0,0-2.019,2.664,4.066,4.066,0,0,0,1.21,3.42,7.724,7.724,0,0,0,.94.834,6.374,6.374,0,0,0,7.81,0,7.723,7.723,0,0,0,.94-.834,4.066,4.066,0,0,0,1.209-3.42,3.69,3.69,0,0,0-2.019-2.664,8.168,8.168,0,0,1-2.2-1.727A9.953,9.953,0,0,1,374.209,152.824Z" transform="translate(-367.061 -131.064)" fill="#fff"/>
      </g>
      <path id="パス_13" data-name="パス 13" d="M322.088,123.552a5.284,5.284,0,0,1-3.606-1.527,8.721,8.721,0,0,1-.948-1.057,7.278,7.278,0,0,1,0-8.99,8.7,8.7,0,0,1,.948-1.058,5.133,5.133,0,0,1,4.318-1.471,4.714,4.714,0,0,1,3.415,2.534,7.052,7.052,0,0,0,1.505,1.9c1.591,1.429,2.634,2.067,4.6,2.067a.525.525,0,1,1,0,1.05c-1.969,0-3.011.638-4.6,2.067a7.044,7.044,0,0,0-1.505,1.9h0A4.713,4.713,0,0,1,322.8,123.5,4.482,4.482,0,0,1,322.088,123.552Zm0-13.109a4.244,4.244,0,0,0-2.885,1.24,7.681,7.681,0,0,0-.834.93,6.249,6.249,0,0,0,0,7.72,7.669,7.669,0,0,0,.834.93,4.1,4.1,0,0,0,3.43,1.2,3.688,3.688,0,0,0,2.657-2,8.1,8.1,0,0,1,1.728-2.179,9.985,9.985,0,0,1,2.578-1.811,9.99,9.99,0,0,1-2.578-1.811,8.1,8.1,0,0,1-1.728-2.179,3.687,3.687,0,0,0-2.657-2A3.452,3.452,0,0,0,322.089,110.443Zm3.664,10.269h0Z" transform="translate(-309.832 -92.876)" fill="#fff"/>
      <path id="パス_14" data-name="パス 14" d="M417.2,123.55a4.483,4.483,0,0,1-.713-.057,4.713,4.713,0,0,1-3.415-2.534,7.06,7.06,0,0,0-1.505-1.9c-1.592-1.429-2.634-2.067-4.6-2.067a.525.525,0,1,1,0-1.05c1.969,0,3.011-.638,4.6-2.067a7.054,7.054,0,0,0,1.505-1.9,4.714,4.714,0,0,1,3.415-2.534,5.126,5.126,0,0,1,4.318,1.471,8.683,8.683,0,0,1,.948,1.058,7.277,7.277,0,0,1,0,8.99,8.7,8.7,0,0,1-.948,1.057A5.284,5.284,0,0,1,417.2,123.55Zm-7.509-7.08a9.989,9.989,0,0,1,2.577,1.811A8.108,8.108,0,0,1,414,120.46a3.687,3.687,0,0,0,2.657,2,4.094,4.094,0,0,0,3.43-1.2,7.65,7.65,0,0,0,.834-.93,6.249,6.249,0,0,0,0-7.72,7.66,7.66,0,0,0-.834-.93,4.091,4.091,0,0,0-3.43-1.2,3.687,3.687,0,0,0-2.657,2h0a8.1,8.1,0,0,1-1.728,2.179A10,10,0,0,1,409.69,116.47Zm3.843-4.24h0Z" transform="translate(-380.528 -92.874)" fill="#fff"/>
    </g>
  </g>
</svg>
